<?xml version="1.0" standalone="no"?>
<!DOCTYPE svg PUBLIC "-//W3C//DTD SVG 20010904//EN"
 "http://www.w3.org/TR/2001/REC-SVG-20010904/DTD/svg10.dtd">
<svg version="1.0" xmlns="http://www.w3.org/2000/svg"
 width="221.000000pt" height="221.000000pt" viewBox="0 0 221.000000 221.000000"
 preserveAspectRatio="xMidYMid meet">
<metadata>
Created by potrace 1.14, written by Peter Selinger 2001-2017
</metadata>
<g transform="translate(0.000000,221.000000) scale(0.100000,-0.100000)"
fill="#000000" stroke="none">
<path d="M1097 1638 c-152 -215 -277 -401 -277 -413 0 -7 26 -50 58 -95 31
-45 62 -90 67 -99 6 -9 12 -18 16 -21 3 -3 21 -27 40 -55 18 -27 42 -58 51
-69 10 -11 20 -28 24 -38 3 -10 10 -18 15 -18 5 0 9 -4 9 -10 0 -17 71 -110
85 -110 7 0 24 17 38 38 14 20 46 66 71 102 25 36 51 73 58 84 7 10 19 24 26
32 6 7 12 15 12 19 0 3 24 39 54 78 84 115 83 104 26 188 -27 41 -53 79 -57
84 -4 6 -28 39 -52 75 -25 36 -47 67 -51 70 -3 3 -19 25 -35 50 -17 25 -35 50
-40 56 -6 6 -26 34 -45 62 -19 28 -38 52 -42 52 -3 0 -26 -28 -51 -62z"/>
<path d="M553 1413 c-30 -40 -81 -113 -98 -140 -5 -10 -14 -22 -18 -27 -44
-61 -132 -183 -151 -213 -14 -21 -39 -58 -57 -82 -84 -119 -160 -231 -164
-243 -4 -11 89 -13 514 -13 l519 0 -21 40 c-12 22 -30 49 -39 59 -10 11 -18
23 -18 28 0 4 -7 16 -16 26 -27 29 -154 213 -154 222 0 4 -4 10 -8 12 -5 2
-55 73 -112 158 -57 85 -107 157 -110 160 -3 3 -13 15 -22 28 l-16 23 -29 -38z"/>
<path d="M1661 1314 c-12 -15 -21 -30 -21 -34 0 -3 34 -53 75 -111 41 -57 112
-156 157 -219 45 -63 87 -120 93 -127 5 -6 28 -37 49 -67 25 -36 47 -56 60
-57 12 0 31 -2 44 -3 31 -4 27 11 -21 75 -23 32 -48 65 -55 75 -31 46 -232
330 -240 339 -4 6 -17 25 -27 43 -11 17 -22 32 -25 32 -3 0 -16 18 -30 40 -14
22 -28 40 -32 40 -3 0 -16 -12 -27 -26z"/>
</g>
</svg>
